<svg width="26" height="41" viewBox="0 0 26 41" fill="none" xmlns="http://www.w3.org/2000/svg">
<path fill-rule="evenodd" clip-rule="evenodd" d="M13 23.0769C19.1176 23.0769 24.0769 18.1176 24.0769 12C24.0769 5.88238 19.1176 0.923077 13 0.923077C6.88238 0.923077 1.92308 5.88238 1.92308 12C1.92308 18.1176 6.88238 23.0769 13 23.0769ZM13 24C19.6274 24 25 18.6274 25 12C25 5.37258 19.6274 0 13 0C6.37258 0 1 5.37258 1 12C1 18.6274 6.37258 24 13 24Z" fill="#9A9A9A"/>
<path d="M13.5576 9.74029C13.1957 9.74029 12.9243 9.65844 12.7434 9.49475C12.5625 9.32244 12.472 9.08552 12.472 8.78398C12.472 8.48244 12.5883 8.2326 12.8209 8.03444C13.0622 7.82767 13.3594 7.72429 13.7126 7.72429C14.0314 7.72429 14.2899 7.80183 14.488 7.95691C14.6862 8.11198 14.7852 8.33167 14.7852 8.61598C14.7852 8.9606 14.6732 9.23629 14.4492 9.44306C14.2252 9.64121 13.928 9.74029 13.5576 9.74029ZM12.3169 16.68C12.0412 16.68 11.8517 16.624 11.7483 16.512C11.6449 16.4 11.5932 16.2234 11.5932 15.9821C11.5932 15.9132 11.6019 15.7926 11.6191 15.6203C11.7569 14.0437 11.9852 12.6092 12.304 11.3169C12.3729 11.0498 12.4849 10.8646 12.64 10.7612C12.8037 10.6492 13.0622 10.5932 13.4154 10.5932C13.7859 10.5932 13.9711 10.744 13.9711 11.0455C13.9711 11.0886 13.9625 11.1704 13.9452 11.2911C13.5576 13.1348 13.3249 14.6812 13.2474 15.9304C13.2302 16.2061 13.1483 16.4 13.0019 16.512C12.8554 16.624 12.6271 16.68 12.3169 16.68Z" fill="#9A9A9A"/>
<path d="M2.52 32C2.856 32 3.26 32.048 3.732 32.144L3.708 33.008C3.292 32.912 2.912 32.864 2.568 32.864C1.848 32.864 1.488 33.096 1.488 33.56V33.668C1.488 33.812 1.524 33.928 1.596 34.016C1.676 34.104 1.816 34.196 2.016 34.292L3.144 34.82C3.824 35.14 4.164 35.608 4.164 36.224V36.488C4.156 37.04 3.988 37.456 3.66 37.736C3.34 38.008 2.832 38.144 2.136 38.144C1.776 38.144 1.26 38.06 0.588 37.892L0.636 36.98C1.236 37.156 1.728 37.244 2.112 37.244C2.504 37.244 2.776 37.192 2.928 37.088C3.08 36.976 3.156 36.796 3.156 36.548V36.428C3.156 36.236 3.116 36.084 3.036 35.972C2.964 35.86 2.84 35.764 2.664 35.684L1.5 35.168C1.148 35.008 0.888 34.816 0.72 34.592C0.56 34.368 0.48 34.108 0.48 33.812V33.644C0.496 33.1 0.664 32.692 0.984 32.42C1.312 32.14 1.824 32 2.52 32ZM7.41403 32C8.12603 32 8.65403 32.192 8.99803 32.576C9.35003 32.952 9.52603 33.488 9.52603 34.184V35.96C9.52603 36.656 9.35003 37.196 8.99803 37.58C8.65403 37.956 8.12603 38.144 7.41403 38.144C6.70203 38.144 6.17003 37.956 5.81803 37.58C5.47403 37.196 5.30203 36.656 5.30203 35.96V34.184C5.30203 33.488 5.47403 32.952 5.81803 32.576C6.17003 32.192 6.70203 32 7.41403 32ZM7.41403 32.852C7.07003 32.852 6.80203 32.96 6.61003 33.176C6.41803 33.392 6.32203 33.7 6.32203 34.1V36.044C6.32203 36.444 6.41803 36.752 6.61003 36.968C6.80203 37.184 7.07003 37.292 7.41403 37.292C7.75803 37.292 8.02603 37.184 8.21803 36.968C8.41003 36.752 8.50603 36.444 8.50603 36.044V34.088C8.50603 33.688 8.41003 33.384 8.21803 33.176C8.02603 32.96 7.75803 32.852 7.41403 32.852ZM12.0422 32.924C12.2502 32.628 12.4902 32.4 12.7622 32.24C13.0342 32.08 13.3182 32 13.6142 32C14.1102 32 14.4942 32.176 14.7662 32.528C15.0382 32.872 15.1742 33.376 15.1742 34.04V35.936C15.1742 36.664 15.0022 37.216 14.6582 37.592C14.3142 37.96 13.7822 38.144 13.0622 38.144C12.3582 38.144 11.8422 37.964 11.5142 37.604C11.1862 37.244 11.0222 36.696 11.0222 35.96V29.804H12.0422V32.924ZM13.3742 32.912C13.1422 32.912 12.9062 33 12.6662 33.176C12.4262 33.352 12.2182 33.592 12.0422 33.896V36.08C12.0422 36.472 12.1302 36.772 12.3062 36.98C12.4902 37.188 12.7422 37.292 13.0622 37.292C13.7902 37.292 14.1542 36.88 14.1542 36.056V34.184C14.1542 33.336 13.8942 32.912 13.3742 32.912ZM19.2866 32C19.3986 32 19.4866 32.008 19.5506 32.024V33.176C19.4306 33.152 19.2746 33.14 19.0826 33.14C18.5226 33.14 18.0786 33.42 17.7506 33.98V38H16.7306V32.144H17.6906V33.02C17.9066 32.692 18.1466 32.44 18.4106 32.264C18.6826 32.088 18.9746 32 19.2866 32ZM22.4709 32C23.1429 32 23.6549 32.184 24.0069 32.552C24.3589 32.92 24.5349 33.452 24.5349 34.148V35.384H21.4509V36.092C21.4509 36.5 21.5469 36.796 21.7389 36.98C21.9389 37.156 22.2509 37.244 22.6749 37.244C23.0909 37.244 23.6109 37.18 24.2349 37.052L24.2589 37.94C23.5149 38.076 22.9829 38.144 22.6629 38.144C21.8709 38.144 21.2989 37.972 20.9469 37.628C20.6029 37.284 20.4309 36.752 20.4309 36.032V34.148C20.4309 33.452 20.5989 32.92 20.9349 32.552C21.2789 32.184 21.7909 32 22.4709 32ZM22.4709 32.852C22.1589 32.852 21.9109 32.952 21.7269 33.152C21.5429 33.344 21.4509 33.624 21.4509 33.992V34.568H23.5149V34.028C23.5149 33.644 23.4189 33.352 23.2269 33.152C23.0429 32.952 22.7909 32.852 22.4709 32.852Z" fill="#9A9A9A"/>
</svg>
