<svg width="48" height="41" viewBox="0 0 48 41" fill="none" xmlns="http://www.w3.org/2000/svg">
<path fill-rule="evenodd" clip-rule="evenodd" d="M12 10.2857V0H22.2857V10.2857H12ZM12.8571 0.857143H21.4286V9.42857H12.8571V0.857143Z" fill="#DC234F"/>
<path fill-rule="evenodd" clip-rule="evenodd" d="M25.7143 10.2857V0H36V10.2857H25.7143ZM26.5714 0.857143H35.1429V9.42857H26.5714V0.857143Z" fill="#DC234F"/>
<path fill-rule="evenodd" clip-rule="evenodd" d="M12 13.7143V24H22.2857V13.7143H12ZM21.4286 14.5714H12.8571V23.1429H21.4286V14.5714Z" fill="#DC234F"/>
<path fill-rule="evenodd" clip-rule="evenodd" d="M25.7143 24V13.7143H36V24H25.7143ZM26.5714 14.5714H35.1429V23.1429H26.5714V14.5714Z" fill="#DC234F"/>
<path d="M2.892 32C3.252 32 3.66 32.052 4.116 32.156L4.092 33.056C3.628 32.952 3.228 32.9 2.892 32.9C2.516 32.9 2.228 33.004 2.028 33.212C1.836 33.42 1.74 33.716 1.74 34.1V36.032C1.74 36.432 1.84 36.736 2.04 36.944C2.248 37.144 2.532 37.244 2.892 37.244C3.116 37.244 3.312 37.232 3.48 37.208C3.648 37.184 3.852 37.144 4.092 37.088L4.116 37.988C3.628 38.092 3.216 38.144 2.88 38.144C1.44 38.144 0.72 37.416 0.72 35.96V34.184C0.72 32.728 1.444 32 2.892 32ZM7.30378 32C7.99178 32 8.49178 32.156 8.80378 32.468C9.12378 32.772 9.28378 33.26 9.28378 33.932V38H8.31178V37.064C7.84778 37.784 7.32378 38.144 6.73978 38.144C6.27578 38.144 5.90378 37.984 5.62378 37.664C5.35178 37.344 5.21578 36.908 5.21578 36.356V36.02C5.21578 35.54 5.37978 35.144 5.70778 34.832C6.03578 34.512 6.47578 34.352 7.02778 34.352C7.33178 34.352 7.74378 34.404 8.26378 34.508V33.848C8.26378 33.504 8.18378 33.256 8.02378 33.104C7.87178 32.952 7.63178 32.876 7.30378 32.876C6.91978 32.876 6.37978 32.936 5.68378 33.056V32.18C6.43578 32.06 6.97578 32 7.30378 32ZM7.27978 35.144C6.94378 35.144 6.68778 35.232 6.51178 35.408C6.33578 35.584 6.24778 35.832 6.24778 36.152V36.284C6.24778 36.58 6.31578 36.812 6.45178 36.98C6.58778 37.148 6.75978 37.232 6.96778 37.232C7.18378 37.232 7.40378 37.14 7.62778 36.956C7.85978 36.764 8.07178 36.496 8.26378 36.152V35.228C7.95978 35.172 7.63178 35.144 7.27978 35.144ZM12.1064 32.144H13.6664V32.984H12.1064V36.416C12.1064 36.72 12.1664 36.94 12.2864 37.076C12.4144 37.204 12.6104 37.268 12.8744 37.268C13.2104 37.268 13.5384 37.228 13.8584 37.148L13.8824 38C13.5304 38.096 13.2104 38.144 12.9224 38.144C12.2824 38.144 11.8144 38.004 11.5184 37.724C11.2304 37.436 11.0864 36.972 11.0864 36.332V32.984H10.2464V32.144H11.0864L11.2784 30.584H12.1064V32.144ZM16.8811 32C17.5531 32 18.0651 32.184 18.4171 32.552C18.7691 32.92 18.9451 33.452 18.9451 34.148V35.384H15.8611V36.092C15.8611 36.5 15.9571 36.796 16.1491 36.98C16.3491 37.156 16.6611 37.244 17.0851 37.244C17.5011 37.244 18.0211 37.18 18.6451 37.052L18.6691 37.94C17.9251 38.076 17.3931 38.144 17.0731 38.144C16.2811 38.144 15.7091 37.972 15.3571 37.628C15.0131 37.284 14.8411 36.752 14.8411 36.032V34.148C14.8411 33.452 15.0091 32.92 15.3451 32.552C15.6891 32.184 16.2011 32 16.8811 32ZM16.8811 32.852C16.5691 32.852 16.3211 32.952 16.1371 33.152C15.9531 33.344 15.8611 33.624 15.8611 33.992V34.568H17.9251V34.028C17.9251 33.644 17.8291 33.352 17.6371 33.152C17.4531 32.952 17.2011 32.852 16.8811 32.852ZM22.2483 32C22.6003 32 22.9203 32.052 23.2083 32.156L25.0803 32.132V33.032L24.0963 33.008C24.2323 33.296 24.3003 33.596 24.3003 33.908V34.172C24.3003 34.756 24.1203 35.228 23.7603 35.588C23.4003 35.94 22.8963 36.116 22.2483 36.116C21.8323 36.116 21.4923 36.076 21.2283 35.996C21.0523 36.14 20.9643 36.304 20.9643 36.488V36.56C20.9643 36.688 21.0043 36.784 21.0843 36.848C21.1643 36.904 21.3203 36.94 21.5523 36.956L23.3403 37.088C23.7083 37.12 24.0043 37.26 24.2283 37.508C24.4603 37.748 24.5763 38.052 24.5763 38.42V38.864C24.5763 39.208 24.5083 39.488 24.3723 39.704C24.2363 39.92 23.9843 40.084 23.6163 40.196C23.2563 40.308 22.7363 40.364 22.0563 40.364C21.8003 40.364 21.4963 40.336 21.1443 40.28C20.8003 40.224 20.4723 40.152 20.1603 40.064L20.1963 39.116C20.9403 39.364 21.5723 39.488 22.0923 39.488C22.5243 39.488 22.8443 39.46 23.0523 39.404C23.2683 39.356 23.4083 39.28 23.4723 39.176C23.5443 39.072 23.5803 38.916 23.5803 38.708V38.612C23.5803 38.428 23.5283 38.284 23.4243 38.18C23.3283 38.076 23.1883 38.02 23.0043 38.012L21.2043 37.892C20.8203 37.868 20.5283 37.76 20.3283 37.568C20.1283 37.376 20.0283 37.116 20.0283 36.788V36.548C20.0283 36.372 20.0723 36.2 20.1603 36.032C20.2563 35.864 20.3923 35.716 20.5683 35.588C20.4323 35.436 20.3323 35.244 20.2683 35.012C20.2123 34.772 20.1843 34.48 20.1843 34.136V33.872C20.1843 33.304 20.3603 32.852 20.7123 32.516C21.0643 32.172 21.5763 32 22.2483 32ZM22.2483 32.852C21.9123 32.852 21.6523 32.94 21.4683 33.116C21.2923 33.284 21.2043 33.528 21.2043 33.848V34.244C21.2043 34.54 21.2283 34.76 21.2763 34.904C21.3323 35.04 21.4283 35.136 21.5643 35.192C21.7003 35.24 21.9043 35.264 22.1763 35.264C22.5443 35.264 22.8203 35.176 23.0043 35C23.1883 34.824 23.2803 34.572 23.2803 34.244V33.884C23.2803 33.548 23.2323 33.256 23.1363 33.008C23.0403 32.968 22.9083 32.932 22.7403 32.9C22.5803 32.868 22.4163 32.852 22.2483 32.852ZM27.9687 32C28.6807 32 29.2087 32.192 29.5527 32.576C29.9047 32.952 30.0807 33.488 30.0807 34.184V35.96C30.0807 36.656 29.9047 37.196 29.5527 37.58C29.2087 37.956 28.6807 38.144 27.9687 38.144C27.2567 38.144 26.7247 37.956 26.3727 37.58C26.0287 37.196 25.8567 36.656 25.8567 35.96V34.184C25.8567 33.488 26.0287 32.952 26.3727 32.576C26.7247 32.192 27.2567 32 27.9687 32ZM27.9687 32.852C27.6247 32.852 27.3567 32.96 27.1647 33.176C26.9727 33.392 26.8767 33.7 26.8767 34.1V36.044C26.8767 36.444 26.9727 36.752 27.1647 36.968C27.3567 37.184 27.6247 37.292 27.9687 37.292C28.3127 37.292 28.5807 37.184 28.7727 36.968C28.9647 36.752 29.0607 36.444 29.0607 36.044V34.088C29.0607 33.688 28.9647 33.384 28.7727 33.176C28.5807 32.96 28.3127 32.852 27.9687 32.852ZM34.1929 32C34.3049 32 34.3929 32.008 34.4569 32.024V33.176C34.3369 33.152 34.1809 33.14 33.9889 33.14C33.4289 33.14 32.9849 33.42 32.6569 33.98V38H31.6369V32.144H32.5969V33.02C32.8129 32.692 33.0529 32.44 33.3169 32.264C33.5889 32.088 33.8809 32 34.1929 32ZM36.5592 32.144V38H35.5392V32.144H36.5592ZM36.0432 29.78C36.2592 29.78 36.4232 29.828 36.5352 29.924C36.6552 30.02 36.7152 30.156 36.7152 30.332V30.68C36.7152 30.856 36.6552 30.992 36.5352 31.088C36.4232 31.176 36.2592 31.22 36.0432 31.22C35.8352 31.22 35.6712 31.176 35.5512 31.088C35.4392 30.992 35.3832 30.856 35.3832 30.68V30.332C35.3832 30.156 35.4392 30.02 35.5512 29.924C35.6712 29.828 35.8352 29.78 36.0432 29.78ZM40.0225 32C40.7105 32 41.2105 32.156 41.5225 32.468C41.8425 32.772 42.0025 33.26 42.0025 33.932V38H41.0305V37.064C40.5665 37.784 40.0425 38.144 39.4585 38.144C38.9945 38.144 38.6225 37.984 38.3425 37.664C38.0705 37.344 37.9345 36.908 37.9345 36.356V36.02C37.9345 35.54 38.0985 35.144 38.4265 34.832C38.7545 34.512 39.1945 34.352 39.7465 34.352C40.0505 34.352 40.4625 34.404 40.9825 34.508V33.848C40.9825 33.504 40.9025 33.256 40.7425 33.104C40.5905 32.952 40.3505 32.876 40.0225 32.876C39.6385 32.876 39.0985 32.936 38.4025 33.056V32.18C39.1545 32.06 39.6945 32 40.0225 32ZM39.9985 35.144C39.6625 35.144 39.4065 35.232 39.2305 35.408C39.0545 35.584 38.9665 35.832 38.9665 36.152V36.284C38.9665 36.58 39.0345 36.812 39.1705 36.98C39.3065 37.148 39.4785 37.232 39.6865 37.232C39.9025 37.232 40.1225 37.14 40.3465 36.956C40.5785 36.764 40.7905 36.496 40.9825 36.152V35.228C40.6785 35.172 40.3505 35.144 39.9985 35.144ZM45.3052 32C45.6412 32 46.0452 32.048 46.5172 32.144L46.4932 33.008C46.0772 32.912 45.6972 32.864 45.3532 32.864C44.6332 32.864 44.2732 33.096 44.2732 33.56V33.668C44.2732 33.812 44.3092 33.928 44.3812 34.016C44.4612 34.104 44.6012 34.196 44.8012 34.292L45.9292 34.82C46.6092 35.14 46.9492 35.608 46.9492 36.224V36.488C46.9412 37.04 46.7732 37.456 46.4452 37.736C46.1252 38.008 45.6172 38.144 44.9212 38.144C44.5612 38.144 44.0452 38.06 43.3732 37.892L43.4212 36.98C44.0212 37.156 44.5132 37.244 44.8972 37.244C45.2892 37.244 45.5612 37.192 45.7132 37.088C45.8652 36.976 45.9412 36.796 45.9412 36.548V36.428C45.9412 36.236 45.9012 36.084 45.8212 35.972C45.7492 35.86 45.6252 35.764 45.4492 35.684L44.2852 35.168C43.9332 35.008 43.6732 34.816 43.5052 34.592C43.3452 34.368 43.2652 34.108 43.2652 33.812V33.644C43.2812 33.1 43.4492 32.692 43.7692 32.42C44.0972 32.14 44.6092 32 45.3052 32Z" fill="#DC234F"/>
</svg>
