<?xml version="1.0" encoding="UTF-8"?>
<!DOCTYPE svg PUBLIC "-//W3C//DTD SVG 1.1//EN" "http://www.w3.org/Graphics/SVG/1.1/DTD/svg11.dtd">
<!-- Creator: CorelDRAW 2018 (64 Bit Versão de avaliação) -->
<svg xmlns="http://www.w3.org/2000/svg" xml:space="preserve" width="47px" height="47px" version="1.1" style="shape-rendering:geometricPrecision; text-rendering:geometricPrecision; image-rendering:optimizeQuality; fill-rule:evenodd; clip-rule:evenodd"
viewBox="0 0 0.57 0.57"
 xmlns:xlink="http://www.w3.org/1999/xlink">
 <defs>
  <style type="text/css">
   <![CDATA[
    .fil0 {fill:#DC234F}
   ]]>
  </style>
 </defs>
 <g id="Camada_x0020_1">
  <metadata id="CorelCorpID_0Corel-Layer"/>
  <g id="_2159414579824">
   <path class="fil0" d="M0.02 0.02l0 0c0.03,-0.03 0.08,-0.03 0.11,0l0.42 0.42c0.03,0.03 0.03,0.08 0,0.11l0 0c-0.03,0.03 -0.08,0.03 -0.11,0l-0.42 -0.42c-0.03,-0.03 -0.03,-0.08 0,-0.11z"/>
   <path class="fil0" d="M0.02 0.55l0 0c-0.03,-0.03 -0.03,-0.08 0,-0.11l0.42 -0.42c0.03,-0.03 0.08,-0.03 0.11,0l0 0c0.03,0.03 0.03,0.08 0,0.11l-0.42 0.42c-0.03,0.03 -0.08,0.03 -0.11,0z"/>
  </g>
 </g>
</svg>
