<svg xmlns="http://www.w3.org/2000/svg" width="47px" height="47px" viewBox="0 0 0.57 0.57">
 <g id="close">
   <path fill="#DC234F" fill-rule="evenodd" clip-rule="evenodd" class="fil0" d="M0.02 0.02l0 0c0.03,-0.03 0.08,-0.03 0.11,0l0.42 0.42c0.03,0.03 0.03,0.08 0,0.11l0 0c-0.03,0.03 -0.08,0.03 -0.11,0l-0.42 -0.42c-0.03,-0.03 -0.03,-0.08 0,-0.11z"/>
   <path fill="#DC234F" fill-rule="evenodd" clip-rule="evenodd" class="fil0" d="M0.02 0.55l0 0c-0.03,-0.03 -0.03,-0.08 0,-0.11l0.42 -0.42c0.03,-0.03 0.08,-0.03 0.11,0l0 0c0.03,0.03 0.03,0.08 0,0.11l-0.42 0.42c-0.03,0.03 -0.08,0.03 -0.11,0z"/>
 </g>
</svg>
