<svg width="48" height="41" viewBox="0 0 48 41" fill="none" xmlns="http://www.w3.org/2000/svg">
    <g id="servers">    
        <path d="M26.5484 11.3455C28.529 11.3455 30.4678 9.20885 30.4678 6.10909C30.4678 3.00934 28.529 0.872728 26.5484 0.872728C25.3132 0.872728 24.0944 1.70367 23.3518 3.08095C23.1421 2.86267 22.9189 2.66749 22.684 2.49818C23.5558 0.983368 24.9621 0 26.5484 0C29.194 0 31.3387 2.73513 31.3387 6.10909C31.3387 9.48305 29.194 12.2182 26.5484 12.2182C25.8377 12.2182 25.1631 12.0208 24.5566 11.6667C24.6749 11.3986 24.7795 11.1181 24.8692 10.8268C25.3937 11.1628 25.9693 11.3455 26.5484 11.3455Z" fill="#9A9A9A"/>
        <path fill-rule="evenodd" clip-rule="evenodd" d="M25.2419 8.29091C25.2419 9.92094 24.8059 11.4118 24.0844 12.5576C24.2788 12.6617 24.4866 12.7637 24.702 12.859C25.4043 13.1695 26.1309 13.3818 26.6972 13.3818C27.2469 13.3818 27.9633 13.1277 28.6305 12.7889C29.2947 12.4517 29.8245 12.0752 29.9981 11.9057L30.2165 11.6924L30.4838 11.8216L30.4847 11.8219L30.4911 11.8251L30.4929 11.8259L30.5264 11.8423C31.8133 12.4706 33.1773 13.1365 34.2108 14.1457C34.4984 14.4265 34.8281 14.9325 35.1445 15.4915C35.4686 16.0643 35.8032 16.7375 36.0959 17.3888C36.3882 18.0389 36.6434 18.6773 36.8058 19.18C36.8863 19.4291 36.9489 19.6595 36.9791 19.8477C36.994 19.9402 37.0043 20.0414 36.9982 20.1382C36.9935 20.2137 36.9743 20.3922 36.8325 20.5307C36.7617 20.5998 36.6737 20.6471 36.6191 20.6747C36.5528 20.7082 36.475 20.7419 36.3914 20.7751C36.2234 20.8419 36.0074 20.9168 35.7615 20.9955C35.2684 21.1535 34.6319 21.3347 33.969 21.5088C32.8195 21.8108 31.547 22.1029 30.7924 22.2105C30.7761 22.233 30.7573 22.255 30.7357 22.2762C30.6623 22.3478 30.5695 22.3968 30.5121 22.4253C30.4419 22.4601 30.3588 22.4955 30.2689 22.5307C30.0882 22.6014 29.855 22.681 29.5898 22.7648C29.0579 22.9329 28.3741 23.125 27.6731 23.3062C26.9717 23.4875 26.2477 23.6592 25.6349 23.786C25.0391 23.9092 24.5033 24 24.2053 24H17.3233C16.4557 24 14.7798 23.7515 13.2986 23.4301C12.5534 23.2684 11.8395 23.0844 11.2853 22.8971C11.0095 22.8039 10.7609 22.7057 10.5641 22.6038C10.4657 22.5529 10.3705 22.496 10.2882 22.4322C10.2107 22.3721 10.1161 22.2842 10.0539 22.1628L10.0119 22.0807L10.0066 21.9885C9.94625 20.9273 10.3047 19.6516 10.8254 18.5384C11.3446 17.4286 12.066 16.3934 12.8061 15.8513C13.4441 15.3841 15.3512 14.1211 16.4772 13.5714L16.7307 13.4476L16.9471 13.6287C17.2605 13.891 17.8032 14.2311 18.4266 14.5231C18.4895 14.459 18.5532 14.3977 18.6176 14.3395C16.882 13.3559 15.6613 11.0182 15.6613 8.29091C15.6613 4.67596 17.806 1.74546 20.4516 1.74546C23.0972 1.74546 25.2419 4.67596 25.2419 8.29091ZM24.371 8.29091C24.371 9.93233 23.8828 11.3834 23.1365 12.4031C22.3898 13.4234 21.4303 13.9636 20.4516 13.9636C19.4729 13.9636 18.5134 13.4234 17.7667 12.4031C17.0204 11.3834 16.5323 9.93233 16.5323 8.29091C16.5323 6.64949 17.0204 5.19844 17.7667 4.17867C18.5134 3.1584 19.4729 2.61818 20.4516 2.61818C21.4303 2.61818 22.3898 3.1584 23.1365 4.17867C23.8828 5.19844 24.371 6.64949 24.371 8.29091ZM19.3232 14.8828C19.7265 15.0161 20.1163 15.1033 20.4574 15.123C20.5061 15.1258 20.5538 15.1273 20.6004 15.1273C20.6004 15.1273 20.6004 15.1273 20.6004 15.1273M19.3232 14.8828C19.3547 14.8572 19.386 14.8331 19.4169 14.8105C19.4547 14.7828 19.4972 14.7521 19.5438 14.719C19.8377 14.796 20.1412 14.8364 20.4516 14.8364C21.6395 14.8364 22.7264 14.2456 23.5635 13.2673C23.7168 13.3519 23.8769 13.4348 24.0414 13.5144L23.9014 13.6511C23.8145 13.7359 23.6387 13.8724 23.4015 14.0299C23.1643 14.1874 22.8658 14.3658 22.5337 14.5344M25.2827 14.0095C26.0446 14.3957 26.8024 14.8178 27.4741 15.3371C27.4829 15.344 27.4918 15.3508 27.5006 15.3577C27.5197 15.3726 27.5387 15.3875 27.5576 15.4025C27.7513 15.5564 27.9375 15.7188 28.114 15.8911C28.2965 16.0693 28.4949 16.337 28.6951 16.6489C28.7867 16.7916 28.8787 16.9437 28.9697 17.1007C29.2664 17.6127 29.5751 18.2176 29.8551 18.8192C30.135 19.4209 30.3893 20.026 30.5761 20.5397C30.6694 20.7962 30.7474 21.0345 30.8035 21.2408C30.8109 21.2682 30.8182 21.2957 30.8251 21.323C31.5273 21.2098 32.6646 20.9492 33.7481 20.6646C34.4022 20.4928 35.0228 20.3159 35.4963 20.1642C35.7338 20.0882 35.9286 20.0202 36.0701 19.964C36.085 19.958 36.0991 19.9523 36.1123 19.9468C36.0895 19.8256 36.0448 19.658 35.9772 19.4488C35.8281 18.9872 35.5865 18.3805 35.3018 17.7473C35.0177 17.1151 34.6951 16.4667 34.3868 15.922C34.0708 15.3636 33.7931 14.9563 33.6029 14.7707C32.7387 13.9268 31.5953 13.3374 30.3667 12.7353C30.0495 12.9822 29.5616 13.2946 29.0242 13.5674C28.326 13.922 27.4584 14.2545 26.6972 14.2545C26.2501 14.2545 25.7624 14.158 25.2827 14.0095ZM17.8239 15.2005C17.3629 14.9698 16.9423 14.7154 16.6186 14.4779C15.5388 15.0456 13.8959 16.1343 13.3201 16.5559C12.7494 16.9739 12.1053 17.8587 11.614 18.9088C11.1547 19.8908 10.8649 20.9409 10.871 21.7761C10.8954 21.7913 10.9261 21.8089 10.9639 21.8285C11.105 21.9015 11.307 21.9834 11.5637 22.0702C12.0746 22.2429 12.7535 22.4189 13.483 22.5772C14.9512 22.8957 16.5524 23.1273 17.3233 23.1273H24.2053C24.3988 23.1273 24.8461 23.058 25.4588 22.9313C26.0544 22.8081 26.7641 22.6398 27.4555 22.4611C28.1472 22.2823 28.8153 22.0944 29.3279 21.9325C29.585 21.8513 29.7973 21.7783 29.952 21.7178C29.975 21.7088 29.9961 21.7003 30.0155 21.6923C30.0146 21.6872 30.0136 21.6821 30.0125 21.6768C30.0077 21.6521 30.0018 21.6247 29.9947 21.5945C29.9887 21.5688 29.9819 21.5412 29.9741 21.5115C29.9503 21.4199 29.9191 21.3139 29.8804 21.1942C29.7313 20.7327 29.4897 20.126 29.205 19.4927C28.9209 18.8606 28.5983 18.2122 28.29 17.6675C28.1555 17.4297 28.0279 17.2194 27.9111 17.0419C27.8695 16.9787 27.8293 16.9198 27.7906 16.8653C27.6826 16.7128 27.5865 16.5947 27.5061 16.5161C27.2901 16.3052 27.0566 16.1101 26.8087 15.9268C26.0649 15.3768 25.1914 14.9324 24.2699 14.4808C24.2303 14.5116 24.188 14.5435 24.1432 14.5762C23.83 14.8051 23.3976 15.0741 22.9274 15.3129C22.9274 15.3129 22.9274 15.3129 22.9274 15.3129C22.8402 15.3572 22.7502 15.4012 22.6582 15.4442C22.014 15.7454 21.2665 16 20.6005 16C20.6005 16 20.6004 16 20.6005 16C20.5118 16 20.4214 15.9962 20.3299 15.9889C19.6894 15.9382 18.99 15.7185 18.363 15.4504C18.3593 15.4488 18.3556 15.4473 18.3519 15.4457L17.8115 15.2147L17.8239 15.2005ZM30.302 12.2185L30.301 12.2205L30.1131 12.6113L30.1205 12.6149L30.128 12.6182L30.302 12.2185Z" fill="#9A9A9A"/>
        <path d="M2.52 32C2.856 32 3.26 32.048 3.732 32.144L3.708 33.008C3.292 32.912 2.912 32.864 2.568 32.864C1.848 32.864 1.488 33.096 1.488 33.56V33.668C1.488 33.812 1.524 33.928 1.596 34.016C1.676 34.104 1.816 34.196 2.016 34.292L3.144 34.82C3.824 35.14 4.164 35.608 4.164 36.224V36.488C4.156 37.04 3.988 37.456 3.66 37.736C3.34 38.008 2.832 38.144 2.136 38.144C1.776 38.144 1.26 38.06 0.588 37.892L0.636 36.98C1.236 37.156 1.728 37.244 2.112 37.244C2.504 37.244 2.776 37.192 2.928 37.088C3.08 36.976 3.156 36.796 3.156 36.548V36.428C3.156 36.236 3.116 36.084 3.036 35.972C2.964 35.86 2.84 35.764 2.664 35.684L1.5 35.168C1.148 35.008 0.888 34.816 0.72 34.592C0.56 34.368 0.48 34.108 0.48 33.812V33.644C0.496 33.1 0.664 32.692 0.984 32.42C1.312 32.14 1.824 32 2.52 32ZM7.34203 32C8.01403 32 8.52603 32.184 8.87803 32.552C9.23003 32.92 9.40603 33.452 9.40603 34.148V35.384H6.32203V36.092C6.32203 36.5 6.41803 36.796 6.61003 36.98C6.81003 37.156 7.12203 37.244 7.54603 37.244C7.96203 37.244 8.48203 37.18 9.10603 37.052L9.13003 37.94C8.38603 38.076 7.85403 38.144 7.53403 38.144C6.74203 38.144 6.17003 37.972 5.81803 37.628C5.47403 37.284 5.30203 36.752 5.30203 36.032V34.148C5.30203 33.452 5.47003 32.92 5.80603 32.552C6.15003 32.184 6.66203 32 7.34203 32ZM7.34203 32.852C7.03003 32.852 6.78203 32.952 6.59803 33.152C6.41403 33.344 6.32203 33.624 6.32203 33.992V34.568H8.38603V34.028C8.38603 33.644 8.29003 33.352 8.09803 33.152C7.91403 32.952 7.66203 32.852 7.34203 32.852ZM13.3452 32C13.4572 32 13.5452 32.008 13.6092 32.024V33.176C13.4892 33.152 13.3332 33.14 13.1412 33.14C12.5812 33.14 12.1372 33.42 11.8092 33.98V38H10.7892V32.144H11.7492V33.02C11.9652 32.692 12.2052 32.44 12.4692 32.264C12.7412 32.088 13.0332 32 13.3452 32ZM19.1499 32.144L17.3379 38H16.0059L14.2059 32.144H15.2859L16.6779 37.256L18.0699 32.144H19.1499ZM21.1256 32.144V38H20.1056V32.144H21.1256ZM20.6096 29.78C20.8256 29.78 20.9896 29.828 21.1016 29.924C21.2216 30.02 21.2816 30.156 21.2816 30.332V30.68C21.2816 30.856 21.2216 30.992 21.1016 31.088C20.9896 31.176 20.8256 31.22 20.6096 31.22C20.4016 31.22 20.2376 31.176 20.1176 31.088C20.0056 30.992 19.9496 30.856 19.9496 30.68V30.332C19.9496 30.156 20.0056 30.02 20.1176 29.924C20.2376 29.828 20.4016 29.78 20.6096 29.78ZM26.8329 38H25.8609V37.052C25.3809 37.78 24.8329 38.144 24.2169 38.144C23.7209 38.144 23.3409 37.976 23.0769 37.64C22.8129 37.296 22.6809 36.796 22.6809 36.14V34.004C22.6809 33.372 22.8249 32.88 23.1129 32.528C23.4089 32.176 23.8289 32 24.3729 32C24.6049 32 24.8489 32.06 25.1049 32.18C25.3609 32.292 25.5969 32.432 25.8129 32.6V29.804H26.8329V38ZM24.6009 32.912C24.3129 32.912 24.0889 33.016 23.9289 33.224C23.7769 33.424 23.7009 33.732 23.7009 34.148V36.008C23.7009 36.824 23.9529 37.232 24.4569 37.232C24.6969 37.232 24.9329 37.14 25.1649 36.956C25.4049 36.764 25.6209 36.496 25.8129 36.152V33.512C25.6449 33.336 25.4449 33.192 25.2129 33.08C24.9889 32.968 24.7849 32.912 24.6009 32.912ZM30.5 32C31.212 32 31.74 32.192 32.084 32.576C32.436 32.952 32.612 33.488 32.612 34.184V35.96C32.612 36.656 32.436 37.196 32.084 37.58C31.74 37.956 31.212 38.144 30.5 38.144C29.788 38.144 29.256 37.956 28.904 37.58C28.56 37.196 28.388 36.656 28.388 35.96V34.184C28.388 33.488 28.56 32.952 28.904 32.576C29.256 32.192 29.788 32 30.5 32ZM30.5 32.852C30.156 32.852 29.888 32.96 29.696 33.176C29.504 33.392 29.408 33.7 29.408 34.1V36.044C29.408 36.444 29.504 36.752 29.696 36.968C29.888 37.184 30.156 37.292 30.5 37.292C30.844 37.292 31.112 37.184 31.304 36.968C31.496 36.752 31.592 36.444 31.592 36.044V34.088C31.592 33.688 31.496 33.384 31.304 33.176C31.112 32.96 30.844 32.852 30.5 32.852ZM36.7241 32C36.8361 32 36.9241 32.008 36.9881 32.024V33.176C36.8681 33.152 36.7121 33.14 36.5201 33.14C35.9601 33.14 35.5161 33.42 35.1881 33.98V38H34.1681V32.144H35.1281V33.02C35.3441 32.692 35.5841 32.44 35.8481 32.264C36.1201 32.088 36.4121 32 36.7241 32ZM39.9084 32C40.5804 32 41.0924 32.184 41.4444 32.552C41.7964 32.92 41.9724 33.452 41.9724 34.148V35.384H38.8884V36.092C38.8884 36.5 38.9844 36.796 39.1764 36.98C39.3764 37.156 39.6884 37.244 40.1124 37.244C40.5284 37.244 41.0484 37.18 41.6724 37.052L41.6964 37.94C40.9524 38.076 40.4204 38.144 40.1004 38.144C39.3084 38.144 38.7364 37.972 38.3844 37.628C38.0404 37.284 37.8684 36.752 37.8684 36.032V34.148C37.8684 33.452 38.0364 32.92 38.3724 32.552C38.7164 32.184 39.2284 32 39.9084 32ZM39.9084 32.852C39.5964 32.852 39.3484 32.952 39.1644 33.152C38.9804 33.344 38.8884 33.624 38.8884 33.992V34.568H40.9524V34.028C40.9524 33.644 40.8564 33.352 40.6644 33.152C40.4804 32.952 40.2284 32.852 39.9084 32.852ZM45.0356 32C45.3716 32 45.7756 32.048 46.2476 32.144L46.2236 33.008C45.8076 32.912 45.4276 32.864 45.0836 32.864C44.3636 32.864 44.0036 33.096 44.0036 33.56V33.668C44.0036 33.812 44.0396 33.928 44.1116 34.016C44.1916 34.104 44.3316 34.196 44.5316 34.292L45.6596 34.82C46.3396 35.14 46.6796 35.608 46.6796 36.224V36.488C46.6716 37.04 46.5036 37.456 46.1756 37.736C45.8556 38.008 45.3476 38.144 44.6516 38.144C44.2916 38.144 43.7756 38.06 43.1036 37.892L43.1516 36.98C43.7516 37.156 44.2436 37.244 44.6276 37.244C45.0196 37.244 45.2916 37.192 45.4436 37.088C45.5956 36.976 45.6716 36.796 45.6716 36.548V36.428C45.6716 36.236 45.6316 36.084 45.5516 35.972C45.4796 35.86 45.3556 35.764 45.1796 35.684L44.0156 35.168C43.6636 35.008 43.4036 34.816 43.2356 34.592C43.0756 34.368 42.9956 34.108 42.9956 33.812V33.644C43.0116 33.1 43.1796 32.692 43.4996 32.42C43.8276 32.14 44.3396 32 45.0356 32Z" fill="#9A9A9A"/>
    </g>
</svg>
